<mxfile host="app.diagrams.net" modified="2024-04-25T11:41:35.615Z" agent="Mozilla/5.0 (Windows NT 10.0; Win64; x64) AppleWebKit/537.36 (KHTML, like Gecko) Chrome/120.0.0.0 YaBrowser/24.1.0.0 Safari/537.36" version="24.3.0" etag="9ptpj5_9zIDWmTNmptbY" type="github">
  <diagram name="Страница — 1" id="CwL7bOMD7UtmWEuJag2B">
    <mxGraphModel>
      <root>
        <mxCell id="0" />
        <mxCell id="1" parent="0" />
      </root>
    </mxGraphModel>
  </diagram>
</mxfile>
